<svg xmlns="http://www.w3.org/2000/svg" xmlns:svg="http://www.w3.org/2000/svg" xmlns:xlink="http://www.w3.org/1999/xlink" version="1.0" height="730pt" width="1500pt" viewBox="64.99999999999994 -63.00000000000006 1508 736" ><defs><style type="text/css">
            @font-face {
                font-family: 'lt_regular';
                src: url('https://app.creately.com/diagram/assets/fonts/lato/lt-regular-webfont.woff2') format('woff2'),
                    url('https://app.creately.com/diagram/assets/fonts/lato/lt-regular-webfont.woff') format('woff');
                font-weight: normal;
                font-style: normal;
            }
            @font-face {
                font-family: 'noto_regular';
                src: url('https://app.creately.com/diagram/assets/fonts/noto/noto-regular.woff') format('woff'),
                     url('https://app.creately.com/diagram/assets/fonts/noto/noto-regular.woff2') format('woff2');
                font-weight: normal;
                font-style: normal;
            }
        p {
            margin: 0;
        }
        </style></defs><defs><style>
            span{ display: inline-block; }
        </style></defs><g id="gx4Vnu9BUEV"><g transform="translate(880 90)"><rect x="0" y="0" width="100" height="50" fill="rgb(48,70,93)" stroke="#30465d" stroke-width="2" stroke-linecap="round" stroke-linejoin="round" stroke-dasharray="0 0"/></g><g transform="translate(897.5, 105.5) rotate(0, 32.5, 9.5)" width="65" height="19"><text text-decoration="none" x="0" fill="rgb(255, 255, 255)" font-size="10pt" font-family="lt_regular"  y="15">Room&#160;</text><text text-decoration="none" x="36" fill="rgb(255, 255, 255)" font-size="10pt" font-family="lt_regular"  y="15">Type</text><text text-decoration="none" x="65" fill="#4b4b4b" font-size="10pt" font-family="noto_regular"  y="15"></text></g></g><g id="kkkYK6tnV8e"><g transform="translate(880 210)"><path d="M 99.99999999999999,30 L 49.99999999999999,60 L 0,30 L 49.99999999999999,0 L 99.99999999999999,30 L 99.99999999999999,30 Z" fill="rgb(239,77,55)" stroke="#ef4d37" stroke-width="2" stroke-linecap="round" stroke-linejoin="round" stroke-dasharray="0 0"/></g><g transform="translate(919, 230.5) rotate(0, 11, 9.5)" width="22" height="19"><text text-decoration="none" x="0" fill="rgb(255, 255, 255)" font-size="10pt" font-family="lt_regular"  y="15">Has</text><text text-decoration="none" x="22" fill="#4b4b4b" font-size="10pt" font-family="noto_regular"  y="15"></text></g></g><g id="dJpT5XBV2rB"><g transform="translate(300 0)"><rect x="0" y="0" width="229.99999999999977" height="149.99999999999994" fill="rgb(233,228,232)" stroke="#e9e4e8" stroke-width="2" stroke-linecap="round" stroke-linejoin="round"/></g><g transform="translate(410.9999999999999, 20.99999999999997) rotate(0, 4, 54)" width="8" height="108"><text text-decoration="none" x="0" fill="#4b4b4b" font-size="10pt" font-family="lt_regular"  y="14">E</text><text text-decoration="none" x="8" fill="#4b4b4b" font-size="10pt" font-family="lt_regular"  y="14"></text><text text-decoration="none" x="4" fill="#4b4b4b" font-size="10pt" font-family="lt_regular"  y="32"></text><text text-decoration="none" x="4" fill="#4b4b4b" font-size="10pt" font-family="lt_regular"  y="50"></text><text text-decoration="none" x="4" fill="#4b4b4b" font-size="10pt" font-family="lt_regular"  y="68"></text><text text-decoration="none" x="4" fill="#4b4b4b" font-size="10pt" font-family="lt_regular"  y="86"></text><text text-decoration="none" x="4" fill="#4b4b4b" font-size="10pt" font-family="noto_regular"  y="105"></text></g></g><g id="n0zCmWau5Jn"><g transform="translate(329.99999999999966 60.000000000000455)"><rect x="0" y="0" width="50.00000000000003" height="30" fill="rgb(39,59,79)" stroke="#273b4f" stroke-width="2" stroke-linecap="round" stroke-linejoin="round"/></g><g transform="translate(351.49999999999966, 65.50000000000045) rotate(0, 3.5, 9.5)" width="7" height="19"><text text-decoration="none" x="0" fill="#ffffff" font-size="10pt" font-family="lt_regular"  y="15">e</text><text text-decoration="none" x="7" fill="#4b4b4b" font-size="10pt" font-family="noto_regular"  y="15"></text></g></g><g id="u37xPwJ66IN"><g transform="translate(389.9999999999993 60.000000000000455)"><rect x="0" y="0" width="50.00000000000003" height="30" fill="rgb(226,78,51)" stroke="#e24e33" stroke-width="2" stroke-linecap="round" stroke-linejoin="round"/></g><g transform="translate(411.4999999999993, 65.50000000000045) rotate(0, 3.5, 9.5)" width="7" height="19"><text text-decoration="none" x="0" fill="#ffffff" font-size="10pt" font-family="lt_regular"  y="15">e</text><text text-decoration="none" x="7" fill="#4b4b4b" font-size="10pt" font-family="noto_regular"  y="15"></text></g></g><g id="Xp4CzCrOQTG"><g transform="translate(449.9999999999991 60.000000000000455)"><rect x="0" y="0" width="50.00000000000003" height="30" fill="rgb(125,136,138)" stroke="#7d888a" stroke-width="2" stroke-linecap="round" stroke-linejoin="round"/></g><g transform="translate(471.4999999999991, 65.50000000000045) rotate(0, 3.5, 9.5)" width="7" height="19"><text text-decoration="none" x="0" fill="#ffffff" font-size="10pt" font-family="lt_regular"  y="15">e</text><text text-decoration="none" x="7" fill="#4b4b4b" font-size="10pt" font-family="noto_regular"  y="15"></text></g></g><g id="HK2gpQIpDRX"><g transform="translate(329.99999999999966 90)"><rect x="0" y="0" width="50.00000000000003" height="30" fill="rgb(48,70,93)" stroke="#30465d" stroke-width="2" stroke-linecap="round" stroke-linejoin="round"/></g><g transform="translate(351.49999999999966, 95.5) rotate(0, 3.5, 9.5)" width="7" height="19"><text text-decoration="none" x="0" fill="#ffffff" font-size="10pt" font-family="lt_regular"  y="15">e</text><text text-decoration="none" x="7" fill="#4b4b4b" font-size="10pt" font-family="noto_regular"  y="15"></text></g></g><g id="Ev0a87F594n"><g transform="translate(389.9999999999999 90)"><rect x="0" y="0" width="50.00000000000003" height="30" fill="rgb(239,77,55)" stroke="#ef4d37" stroke-width="2" stroke-linecap="round" stroke-linejoin="round"/></g><g transform="translate(411.4999999999999, 95.5) rotate(0, 3.5, 9.5)" width="7" height="19"><text text-decoration="none" x="0" fill="#ffffff" font-size="10pt" font-family="lt_regular"  y="15">e</text><text text-decoration="none" x="7" fill="#4b4b4b" font-size="10pt" font-family="noto_regular"  y="15"></text></g></g><g id="hfcY5ufOhr0"><g transform="translate(449.9999999999991 90)"><rect x="0" y="0" width="50.00000000000003" height="30" fill="rgb(166,179,178)" stroke="#a6b3b2" stroke-width="2" stroke-linecap="round" stroke-linejoin="round"/></g><g transform="translate(471.4999999999991, 95.5) rotate(0, 3.5, 9.5)" width="7" height="19"><text text-decoration="none" x="0" fill="#ffffff" font-size="10pt" font-family="lt_regular"  y="15">e</text><text text-decoration="none" x="7" fill="#4b4b4b" font-size="10pt" font-family="noto_regular"  y="15"></text></g></g><g id="i7KhqkTA8a2"><g><path d="M 930,210 L 930,140" fill="none" stroke="#A8A8A8" stroke-width="2" stroke-linecap="round" stroke-linejoin="round"/><path d="M 924.25,145 L 935.75,145 M 924.25,150 L 935.75,150 Z" fill="none" stroke="#A8A8A8" stroke-width="2" stroke-linecap="round" stroke-linejoin="round"/></g></g><g id="Ffh7Hn1R7j1"><g transform="translate(880 340)"><rect x="0" y="0" width="100" height="50" fill="rgb(48,70,93)" stroke="#30465d" stroke-width="2" stroke-linecap="round" stroke-linejoin="round" stroke-dasharray="0 0"/></g><g transform="translate(913, 355.5) rotate(0, 17, 9.5)" width="34" height="19"><text text-decoration="none" x="0.5" fill="rgb(255, 255, 255)" font-size="10pt" font-family="lt_regular"  y="15">Room</text><text text-decoration="none" x="33.5" fill="#4b4b4b" font-size="10pt" font-family="noto_regular"  y="15"></text></g></g><g id="57lphEonpzL"><g transform="translate(880 560)"><rect x="0" y="0" width="99.99999999999997" height="49.999999999999986" fill="rgb(48,70,93)" stroke="#30465d" stroke-width="2" stroke-linecap="round" stroke-linejoin="round" stroke-dasharray="0 0"/></g><g transform="translate(895.5, 575.5) rotate(0, 34.5, 9.5)" width="69" height="19"><text text-decoration="none" x="0.5" fill="rgb(255, 255, 255)" font-size="10pt" font-family="lt_regular"  y="15">Reservation</text><text text-decoration="none" x="68.5" fill="#4b4b4b" font-size="10pt" font-family="noto_regular"  y="15"></text></g></g><g id="KXeKW9uXJ4O"><g transform="translate(880 450)"><path d="M 99.99999999999999,30 L 49.99999999999999,60 L 0,30 L 49.99999999999999,0 L 99.99999999999999,30 L 99.99999999999999,30 Z" fill="rgb(239,77,55)" stroke="#ef4d37" stroke-width="2" stroke-linecap="round" stroke-linejoin="round" stroke-dasharray="0 0"/></g><g transform="translate(894, 470.5) rotate(0, 36, 9.5)" width="72" height="19"><text text-decoration="none" x="0" fill="rgb(255, 255, 255)" font-size="10pt" font-family="lt_regular"  y="15">Reserved&#160;</text><text text-decoration="none" x="57" fill="rgb(255, 255, 255)" font-size="10pt" font-family="lt_regular"  y="15">By</text><text text-decoration="none" x="72" fill="#4b4b4b" font-size="10pt" font-family="noto_regular"  y="15"></text></g></g><g id="lMWrHKhimjq"><g transform="translate(1250 400)"><rect x="0" y="0" width="99.99999999999994" height="49.99999999999997" fill="rgb(48,70,93)" stroke="#30465d" stroke-width="2" stroke-linecap="round" stroke-linejoin="round" stroke-dasharray="0 0"/></g><g transform="translate(1260, 415.5) rotate(0, 40, 9.5)" width="80" height="19"><text text-decoration="none" x="0.5" fill="rgb(255, 255, 255)" font-size="10pt" font-family="lt_regular"  y="15">Administrator</text><text text-decoration="none" x="79.5" fill="#4b4b4b" font-size="10pt" font-family="noto_regular"  y="15"></text></g></g><g id="2keCdJ5zED4"><g transform="translate(1030 400.00000000000006)"><path d="M 99.99999999999999,30 L 49.99999999999999,60 L 0,30 L 49.99999999999999,0 L 99.99999999999999,30 L 99.99999999999999,30 Z" fill="rgb(239,77,55)" stroke="#ef4d37" stroke-width="2" stroke-linecap="round" stroke-linejoin="round" stroke-dasharray="0 0"/></g><g transform="translate(1044, 420.50000000000006) rotate(0, 36, 9.5)" width="72" height="19"><text text-decoration="none" x="1" fill="rgb(255, 255, 255)" font-size="10pt" font-family="lt_regular"  y="15">Managed&#160;</text><text text-decoration="none" x="56" fill="rgb(255, 255, 255)" font-size="10pt" font-family="lt_regular"  y="15">By</text><text text-decoration="none" x="71" fill="#4b4b4b" font-size="10pt" font-family="noto_regular"  y="15"></text></g></g><g id="joXJZVUr07f"><g transform="translate(1030 260)"><path d="M 99.99999999999999,30 L 49.99999999999999,60 L 0,30 L 49.99999999999999,0 L 99.99999999999999,30 L 99.99999999999999,30 Z" fill="rgb(239,77,55)" stroke="#ef4d37" stroke-width="2" stroke-linecap="round" stroke-linejoin="round" stroke-dasharray="0 0"/></g><g transform="translate(1044, 280.5) rotate(0, 36, 9.5)" width="72" height="19"><text text-decoration="none" x="1" fill="rgb(255, 255, 255)" font-size="10pt" font-family="lt_regular"  y="15">Managed&#160;</text><text text-decoration="none" x="56" fill="rgb(255, 255, 255)" font-size="10pt" font-family="lt_regular"  y="15">By</text><text text-decoration="none" x="71" fill="#4b4b4b" font-size="10pt" font-family="noto_regular"  y="15"></text></g></g><g id="RVdJadeKuPh"><g transform="translate(549.9999999999998 429.99999999999994)"><path d="M 99.99999999999999,30 L 49.99999999999999,60 L 0,30 L 49.99999999999999,0 L 99.99999999999999,30 L 99.99999999999999,30 Z" fill="rgb(239,77,55)" stroke="#ef4d37" stroke-width="2" stroke-linecap="round" stroke-linejoin="round" stroke-dasharray="0 0"/></g><g transform="translate(581.9999999999998, 450.49999999999994) rotate(0, 18, 9.5)" width="36" height="19"><text text-decoration="none" x="0.5" fill="rgb(255, 255, 255)" font-size="10pt" font-family="lt_regular"  y="15">Books</text><text text-decoration="none" x="35.5" fill="#4b4b4b" font-size="10pt" font-family="noto_regular"  y="15"></text></g></g><g id="5djZAMDQQiA"><g transform="translate(410 480)"><path d="M 99.99999999999999,30 L 49.99999999999999,60 L 0,30 L 49.99999999999999,0 L 99.99999999999999,30 L 99.99999999999999,30 Z" fill="rgb(239,77,55)" stroke="#ef4d37" stroke-width="2" stroke-linecap="round" stroke-linejoin="round" stroke-dasharray="0 0"/></g><g transform="translate(446.5, 500.5) rotate(0, 13.5, 9.5)" width="27" height="19"><text text-decoration="none" x="0" fill="rgb(255, 255, 255)" font-size="10pt" font-family="lt_regular"  y="15">Pays</text><text text-decoration="none" x="27" fill="#4b4b4b" font-size="10pt" font-family="noto_regular"  y="15"></text></g></g><g id="lXxGZcgvy4l"><g><path d="M 930,270 L 930,340" fill="none" stroke="#A8A8A8" stroke-width="2" stroke-linecap="round" stroke-linejoin="round"/><path d="M 935.75,340 L 930,330 L 930,340 M 930,330 L 924.25,340" fill="none" stroke="#A8A8A8" stroke-width="2" stroke-linecap="round" stroke-linejoin="round"/><circle cx="930" cy="325" r="5.75" fill="rgb(255,255,255)" stroke="#A8A8A8" stroke-width="2" stroke-linecap="round" stroke-linejoin="round"/><path d="Z" fill="none" stroke="#A8A8A8" stroke-width="2" stroke-linecap="round" stroke-linejoin="round"/></g></g><g id="3FT6aD6Gmz2"><g><path d="M 930,390 L 930,450" fill="none" stroke="#A8A8A8" stroke-width="2" stroke-linecap="round" stroke-linejoin="round"/><path d="M 924.25,395 L 935.75,395 M 924.25,400 L 935.75,400 Z" fill="none" stroke="#A8A8A8" stroke-width="2" stroke-linecap="round" stroke-linejoin="round"/></g></g><g id="gK9xOE8grU3"><g><path d="M 930,510 L 930,560" fill="none" stroke="#A8A8A8" stroke-width="2" stroke-linecap="round" stroke-linejoin="round"/><path d="M 935.75,560 L 930,550 L 930,560 M 930,550 L 924.25,560" fill="none" stroke="#A8A8A8" stroke-width="2" stroke-linecap="round" stroke-linejoin="round"/><circle cx="930" cy="545" r="5.75" fill="rgb(255,255,255)" stroke="#A8A8A8" stroke-width="2" stroke-linecap="round" stroke-linejoin="round"/><path d="Z" fill="none" stroke="#A8A8A8" stroke-width="2" stroke-linecap="round" stroke-linejoin="round"/></g></g><g id="LlO0n0RJUv9"><g transform="translate(710 9.999999999999986)"><ellipse cx="39.99999999999999" cy="24.999999999999986" rx="39.99999999999999" ry="24.999999999999986" fill="rgb(166,179,178)" stroke="#a6b3b2" stroke-width="2" stroke-linecap="round" stroke-linejoin="round" stroke-dasharray="0 0"/></g><g transform="translate(731, 16.49999999999997) rotate(0, 19, 18.5)" width="38" height="37"><text text-decoration="none" x="7" fill="#ffffff" font-size="10pt" font-family="lt_regular"  y="14">Max&#160;</text><text text-decoration="none" x="0" fill="#ffffff" font-size="10pt" font-family="lt_regular"  y="33">guests</text><text text-decoration="none" x="38" fill="#4b4b4b" font-size="10pt" font-family="noto_regular"  y="33"></text></g></g><g id="l6bffQWhgkg"><g transform="translate(710 79.99999999999994)"><ellipse cx="39.99999999999999" cy="24.999999999999986" rx="39.99999999999999" ry="24.999999999999986" fill="rgb(166,179,178)" stroke="#a6b3b2" stroke-width="2" stroke-linecap="round" stroke-linejoin="round" stroke-dasharray="0 0"/></g><g transform="translate(728.5, 95.49999999999993) rotate(0, 21.5, 9.5)" width="43" height="19"><text text-decoration="none" x="0.5" fill="#ffffff" font-size="10pt" font-family="lt_regular"  y="15">type_id</text><text text-decoration="none" x="42.5" fill="#4b4b4b" font-size="10pt" font-family="noto_regular"  y="15"></text></g></g><g id="MU9eXK6EFJO"><g transform="translate(710 150)"><ellipse cx="39.99999999999999" cy="24.999999999999986" rx="39.99999999999999" ry="24.999999999999986" fill="rgb(166,179,178)" stroke="#a6b3b2" stroke-width="2" stroke-linecap="round" stroke-linejoin="round" stroke-dasharray="0 0"/></g><g transform="translate(734, 165.5) rotate(0, 16, 9.5)" width="32" height="19"><text text-decoration="none" x="0.5" fill="#ffffff" font-size="10pt" font-family="lt_regular"  y="15">name</text><text text-decoration="none" x="31.5" fill="#4b4b4b" font-size="10pt" font-family="noto_regular"  y="15"></text></g></g><g id="L2N5Et9ffzr"><g><path d="M 1130,290 L 1300,290 L 1300,400" fill="none" stroke="#A8A8A8" stroke-width="2" stroke-linecap="round" stroke-linejoin="round"/><path d="M 1305.75,395 L 1294.25,395 Z" fill="none" stroke="#A8A8A8" stroke-width="2" stroke-linecap="round" stroke-linejoin="round"/></g></g><g id="8g7jm34jlWe"><g><path d="M 980,365 L 1080,365 L 1080,400" fill="none" stroke="#A8A8A8" stroke-width="2" stroke-linecap="round" stroke-linejoin="round"/><path d="M 980,370.75 L 990,365 L 980,365 M 990,365 L 980,359.25" fill="none" stroke="#A8A8A8" stroke-width="2" stroke-linecap="round" stroke-linejoin="round"/><circle cx="995" cy="365" r="5.75" fill="rgb(255,255,255)" stroke="#A8A8A8" stroke-width="2" stroke-linecap="round" stroke-linejoin="round"/><path d="Z" fill="none" stroke="#A8A8A8" stroke-width="2" stroke-linecap="round" stroke-linejoin="round"/></g></g><g id="pjh5gElWkiv"><mask id="b8cad" x="966" y="101" width="128" height="173" maskUnits="userSpaceOnUse"><rect x="966" y="101" width="128" height="173" fill="white" />undefined</mask><g mask="url(#b8cad)"><path d="M 1080,260 L 1080,115 L 980,115" fill="none" stroke="#A8A8A8" stroke-width="2" stroke-linecap="round" stroke-linejoin="round"/><path d="M 980,120.75 L 990,115 L 980,115 M 990,115 L 980,109.25" fill="none" stroke="#A8A8A8" stroke-width="2" stroke-linecap="round" stroke-linejoin="round"/><circle cx="995" cy="115" r="5.75" fill="rgb(255,255,255)" stroke="#A8A8A8" stroke-width="2" stroke-linecap="round" stroke-linejoin="round"/><path d="Z" fill="none" stroke="#A8A8A8" stroke-width="2" stroke-linecap="round" stroke-linejoin="round"/></g>undefined</g><g id="wYHTJHWmW5N"><g><path d="M 880,115 L 790,35" fill="none" stroke="#A8A8A8" stroke-width="2" stroke-linecap="round" stroke-linejoin="round"/></g></g><g id="zuGkopOb2ox"><g><path d="M 880,115 L 790,105" fill="none" stroke="#A8A8A8" stroke-width="2" stroke-linecap="round" stroke-linejoin="round"/></g></g><g id="XEhmCMPhzE4"><g><path d="M 880,115 L 790,175" fill="none" stroke="#A8A8A8" stroke-width="2" stroke-linecap="round" stroke-linejoin="round"/></g></g><g id="cGbNX55Oqdo"><g transform="translate(790.0000000000001 -60.00000000000003)"><ellipse cx="39.99999999999999" cy="24.999999999999986" rx="39.99999999999999" ry="24.999999999999986" fill="rgb(166,179,178)" stroke="#a6b3b2" stroke-width="2" stroke-linecap="round" stroke-linejoin="round" stroke-dasharray="0 0"/></g><g transform="translate(795.5000000000001, -44.50000000000004) rotate(0, 34.5, 9.5)" width="69" height="19"><text text-decoration="none" x="0.5" fill="rgb(255, 255, 255)" font-size="10pt" font-family="lt_regular"  y="15">total_rooms</text><text text-decoration="none" x="68.5" fill="#4b4b4b" font-size="10pt" font-family="noto_regular"  y="15"></text></g></g><g id="Wy3GcEd76fX"><g><path d="M 930,90 L 830,-10" fill="none" stroke="#A8A8A8" stroke-width="2" stroke-linecap="round" stroke-linejoin="round"/></g></g><g id="43I8yACKpNF"><g transform="translate(890 -60.00000000000003)"><ellipse cx="39.99999999999999" cy="24.999999999999986" rx="39.99999999999999" ry="24.999999999999986" fill="rgb(166,179,178)" stroke="#a6b3b2" stroke-width="2" stroke-linecap="round" stroke-linejoin="round" stroke-dasharray="0 0"/></g><g transform="translate(897, -44.50000000000004) rotate(0, 33, 9.5)" width="66" height="19"><text text-decoration="none" x="1" fill="rgb(255, 255, 255)" font-size="10pt" font-family="lt_regular"  y="15">room_price</text><text text-decoration="none" x="65" fill="#4b4b4b" font-size="10pt" font-family="noto_regular"  y="15"></text></g></g><g id="b9NsbTqM802"><g><path d="M 930,90 L 930,-10" fill="none" stroke="#A8A8A8" stroke-width="2" stroke-linecap="round" stroke-linejoin="round"/></g></g><g id="sVqMZrb46EF"><g transform="translate(990.0000000000002 -60.00000000000006)"><ellipse cx="39.99999999999997" cy="24.999999999999986" rx="39.99999999999997" ry="24.999999999999986" fill="rgb(166,179,178)" stroke="#a6b3b2" stroke-width="2" stroke-linecap="round" stroke-linejoin="round" stroke-dasharray="0 0"/></g><g transform="translate(997.5000000000002, -44.50000000000007) rotate(0, 32.5, 9.5)" width="65" height="19"><text text-decoration="none" x="1" fill="rgb(255, 255, 255)" font-size="10pt" font-family="lt_regular"  y="15">description</text><text text-decoration="none" x="64" fill="#4b4b4b" font-size="10pt" font-family="noto_regular"  y="15"></text></g></g><g id="sjiLaahaFdf"><g><path d="M 930,90 L 1030,-10" fill="none" stroke="#A8A8A8" stroke-width="2" stroke-linecap="round" stroke-linejoin="round"/></g></g><g id="KrvK2DgSeZx"><g><path d="M 1130,430 L 1150,430.00000000000006 L 1150,405 L 1150,380 L 1225,380 L 1300,380 L 1300,400" fill="none" stroke="#A8A8A8" stroke-width="2" stroke-linecap="round" stroke-linejoin="round"/><path d="M 1305.75,395 L 1294.25,395 Z" fill="none" stroke="#A8A8A8" stroke-width="2" stroke-linecap="round" stroke-linejoin="round"/></g></g><g id="fVjBpaV7lgB"><g><path d="M 980,480 L 1211.480218762036,480 L 1211,453 L 1211.480218762036,425 L 1250,425" fill="none" stroke="#A8A8A8" stroke-width="2" stroke-linecap="round" stroke-linejoin="round"/><path d="M 1245,419.25 L 1245,430.75 Z" fill="none" stroke="#A8A8A8" stroke-width="2" stroke-linecap="round" stroke-linejoin="round"/></g></g><g id="G5ByC6crcX5"><g transform="translate(1340 320)"><ellipse cx="39.999999999999986" cy="24.999999999999986" rx="39.999999999999986" ry="24.999999999999986" fill="rgb(166,179,178)" stroke="#a6b3b2" stroke-width="2" stroke-linecap="round" stroke-linejoin="round" stroke-dasharray="0 0"/></g><g transform="translate(1351.5, 335.5) rotate(0, 28.5, 9.5)" width="57" height="19"><text text-decoration="none" x="0.5" fill="rgb(255, 255, 255)" font-size="10pt" font-family="lt_regular"  y="15">username</text><text text-decoration="none" x="56.5" fill="#4b4b4b" font-size="10pt" font-family="noto_regular"  y="15"></text></g></g><g id="Akc7cJtn7NM"><g transform="translate(1430 330)"><ellipse cx="39.999999999999986" cy="24.999999999999986" rx="39.999999999999986" ry="24.999999999999986" fill="rgb(166,179,178)" stroke="#a6b3b2" stroke-width="2" stroke-linecap="round" stroke-linejoin="round" stroke-dasharray="0 0"/></g><g transform="translate(1442, 345.5) rotate(0, 28, 9.5)" width="56" height="19"><text text-decoration="none" x="1" fill="rgb(255, 255, 255)" font-size="10pt" font-family="lt_regular"  y="15">password</text><text text-decoration="none" x="55" fill="#4b4b4b" font-size="10pt" font-family="noto_regular"  y="15"></text></g></g><g id="3jF3R2eVR3R"><g transform="translate(1490 390)"><ellipse cx="39.999999999999986" cy="24.999999999999986" rx="39.999999999999986" ry="24.999999999999986" fill="rgb(166,179,178)" stroke="#a6b3b2" stroke-width="2" stroke-linecap="round" stroke-linejoin="round" stroke-dasharray="0 0"/></g><g transform="translate(1509, 405.5) rotate(0, 21, 9.5)" width="42" height="19"><text text-decoration="none" x="0.5" fill="rgb(255, 255, 255)" font-size="10pt" font-family="lt_regular"  y="15">user_id</text><text text-decoration="none" x="41.5" fill="#4b4b4b" font-size="10pt" font-family="noto_regular"  y="15"></text></g></g><g id="IWAd0vArFh9"><g transform="translate(1430 450)"><ellipse cx="39.999999999999986" cy="24.999999999999986" rx="39.999999999999986" ry="24.999999999999986" fill="rgb(166,179,178)" stroke="#a6b3b2" stroke-width="2" stroke-linecap="round" stroke-linejoin="round" stroke-dasharray="0 0"/></g><g transform="translate(1454.5, 465.5) rotate(0, 15.5, 9.5)" width="31" height="19"><text text-decoration="none" x="0.5" fill="rgb(255, 255, 255)" font-size="10pt" font-family="lt_regular"  y="15">email</text><text text-decoration="none" x="30.5" fill="#4b4b4b" font-size="10pt" font-family="noto_regular"  y="15"></text></g></g><g id="tCdN1fuWzZK"><g transform="translate(1340 480)"><ellipse cx="39.999999999999986" cy="24.999999999999986" rx="39.999999999999986" ry="24.999999999999986" fill="rgb(166,179,178)" stroke="#a6b3b2" stroke-width="2" stroke-linecap="round" stroke-linejoin="round" stroke-dasharray="0 0"/></g><g transform="translate(1351, 495.5) rotate(0, 29, 9.5)" width="58" height="19"><text text-decoration="none" x="0" fill="rgb(255, 255, 255)" font-size="10pt" font-family="lt_regular"  y="15">user_level</text><text text-decoration="none" x="58" fill="#4b4b4b" font-size="10pt" font-family="noto_regular"  y="15"></text></g></g><g id="nlK11cYFW2C"><g><path d="M 1350,425 L 1380,370" fill="none" stroke="#A8A8A8" stroke-width="2" stroke-linecap="round" stroke-linejoin="round"/></g></g><g id="i8jm60EcKfx"><g><path d="M 1350,425 L 1470,380" fill="none" stroke="#A8A8A8" stroke-width="2" stroke-linecap="round" stroke-linejoin="round"/></g></g><g id="XTJLxzdOCLv"><g><path d="M 1350,425 L 1420,420 L 1490,415" fill="none" stroke="#A8A8A8" stroke-width="2" stroke-linecap="round" stroke-linejoin="round"/></g></g><g id="LsDxLyfHmQD"><g><path d="M 1350,425 L 1430,475" fill="none" stroke="#A8A8A8" stroke-width="2" stroke-linecap="round" stroke-linejoin="round"/></g></g><g id="LmjfV20hbWZ"><g><path d="M 1350,425 L 1380,480" fill="none" stroke="#A8A8A8" stroke-width="2" stroke-linecap="round" stroke-linejoin="round"/></g></g><g id="qr4PdcqLLgl"><g transform="translate(710 260)"><ellipse cx="39.999999999999986" cy="24.999999999999982" rx="39.999999999999986" ry="24.999999999999982" fill="rgb(166,179,178)" stroke="#a6b3b2" stroke-width="2" stroke-linecap="round" stroke-linejoin="round" stroke-dasharray="0 0"/></g><g transform="translate(724, 275.5) rotate(0, 26, 9.5)" width="52" height="19"><text text-decoration="none" x="1" fill="rgb(255, 255, 255)" font-size="10pt" font-family="lt_regular"  y="15">room_no</text><text text-decoration="none" x="51" fill="#4b4b4b" font-size="10pt" font-family="noto_regular"  y="15"></text></g></g><g id="swJvMQfva6g"><g transform="translate(710 330.00000000000006)"><ellipse cx="39.999999999999986" cy="24.999999999999982" rx="39.999999999999986" ry="24.999999999999982" fill="rgb(166,179,178)" stroke="#a6b3b2" stroke-width="2" stroke-linecap="round" stroke-linejoin="round" stroke-dasharray="0 0"/></g><g transform="translate(718.5, 345.5) rotate(0, 31.5, 9.5)" width="63" height="19"><text text-decoration="none" x="0.5" fill="rgb(255, 255, 255)" font-size="10pt" font-family="lt_regular"  y="15">room_type</text><text text-decoration="none" x="62.5" fill="#4b4b4b" font-size="10pt" font-family="noto_regular"  y="15"></text></g></g><g id="qhqbwcccecV"><g transform="translate(710 399.99999999999994)"><ellipse cx="39.999999999999986" cy="24.999999999999982" rx="39.999999999999986" ry="24.999999999999982" fill="rgb(166,179,178)" stroke="#a6b3b2" stroke-width="2" stroke-linecap="round" stroke-linejoin="round" stroke-dasharray="0 0"/></g><g transform="translate(717.5, 415.4999999999999) rotate(0, 32.5, 9.5)" width="65" height="19"><text text-decoration="none" x="1" fill="rgb(255, 255, 255)" font-size="10pt" font-family="lt_regular"  y="15">room_floor</text><text text-decoration="none" x="64" fill="#4b4b4b" font-size="10pt" font-family="noto_regular"  y="15"></text></g></g><g id="8ZBLhmwK2on"><g><path d="M 880,365 L 835,325 L 790,285" fill="none" stroke="#A8A8A8" stroke-width="2" stroke-linecap="round" stroke-linejoin="round"/></g></g><g id="hsN4IVaStTv"><g><path d="M 880,365 L 835,360 L 790,355" fill="none" stroke="#A8A8A8" stroke-width="2" stroke-linecap="round" stroke-linejoin="round"/></g></g><g id="XcgCfI0K7tE"><g><path d="M 880,365 L 831,388 L 782,410" fill="none" stroke="#A8A8A8" stroke-width="2" stroke-linecap="round" stroke-linejoin="round"/></g></g><g id="nffmhJGgH2E"><g transform="translate(710 600)"><path d="M 109.99999999999993,34.99999999999999 L 54.999999999999964,69.99999999999999 L 0,34.99999999999999 L 54.999999999999964,0 L 109.99999999999993,34.99999999999999 L 109.99999999999993,34.99999999999999 Z" fill="white" stroke="#24afaf" stroke-width="2" stroke-linecap="round" stroke-linejoin="round"/></g><g transform="translate(741, 625.5) rotate(0, 24, 9.5)" width="48" height="19"><text text-decoration="none" x="0.5" fill="rgb(97, 114, 130)" font-size="10pt" font-family="lt_regular"  y="15">Includes</text><text text-decoration="none" x="47.5" fill="#4b4b4b" font-size="10pt" font-family="noto_regular"  y="15"></text></g></g><g id="kqAQ30N4r6V"><g><path d="M 930,610 L 930,635 L 820,635" fill="none" stroke="#A8A8A8" stroke-width="2" stroke-linecap="round" stroke-linejoin="round"/><path d="M 924.25,615 L 935.75,615 Z" fill="none" stroke="#A8A8A8" stroke-width="2" stroke-linecap="round" stroke-linejoin="round"/></g></g><g id="wyb6AniEh0O"><g transform="translate(549.9999999999998 610)"><rect x="0" y="0" width="100" height="50" fill="white" stroke="#3396DD" stroke-width="2" stroke-linecap="round" stroke-linejoin="round"/></g><g transform="translate(574.4999999999998, 625.5) rotate(0, 25.5, 9.5)" width="51" height="19"><text text-decoration="none" x="0" fill="rgb(97, 114, 130)" font-size="10pt" font-family="lt_regular"  y="15">Payment</text><text text-decoration="none" x="51" fill="#4b4b4b" font-size="10pt" font-family="noto_regular"  y="15"></text></g></g><g id="0OUdT2qJOmE"><g><path d="M 710,635 L 650,635" fill="none" stroke="#A8A8A8" stroke-width="2" stroke-linecap="round" stroke-linejoin="round"/><path d="M 655,640.75 L 655,629.25 Z" fill="none" stroke="#A8A8A8" stroke-width="2" stroke-linecap="round" stroke-linejoin="round"/></g></g><g id="8pRs5i81vff"><g><path d="M 880,585 L 764.9999999999999,585 L 765,523 L 764.9999999999999,459.99999999999994 L 650,460" fill="none" stroke="#A8A8A8" stroke-width="2" stroke-linecap="round" stroke-linejoin="round"/><path d="M 880,579.25 L 870,585 L 880,590.75 M 870,579.25 L 870,590.75 Z" fill="none" stroke="#A8A8A8" stroke-width="2" stroke-linecap="round" stroke-linejoin="round"/></g></g><g id="mvOrIWiKIj4"><g><path d="M 600,490 L 600,610" fill="none" stroke="#A8A8A8" stroke-width="2" stroke-linecap="round" stroke-linejoin="round"/><path d="M 605.75,610 L 600,600 L 594.25,610 M 605.75,600 L 594.25,600 Z" fill="none" stroke="#A8A8A8" stroke-width="2" stroke-linecap="round" stroke-linejoin="round"/></g></g><g id="pZSaRZnic7d"><g><path d="M 550,635 L 460,635 L 460,540" fill="none" stroke="#A8A8A8" stroke-width="2" stroke-linecap="round" stroke-linejoin="round"/></g></g><g id="ztmUKAi4uMf"><g transform="translate(289.99999999999994 400)"><rect x="0" y="0" width="100" height="50" fill="white" stroke="#3396DD" stroke-width="2" stroke-linecap="round" stroke-linejoin="round"/></g><g transform="translate(311.49999999999994, 415.5) rotate(0, 28.5, 9.5)" width="57" height="19"><text text-decoration="none" x="0" fill="rgb(97, 114, 130)" font-size="10pt" font-family="lt_regular"  y="15">Customer</text><text text-decoration="none" x="57" fill="#4b4b4b" font-size="10pt" font-family="noto_regular"  y="15"></text></g></g><g id="Oc1FWwfWnBG"><g><path d="M 550,460 L 470,460 L 470,443 L 470,425 L 390,425" fill="none" stroke="#A8A8A8" stroke-width="2" stroke-linecap="round" stroke-linejoin="round"/><path d="M 395,430.75 L 395,419.25 Z" fill="none" stroke="#A8A8A8" stroke-width="2" stroke-linecap="round" stroke-linejoin="round"/></g></g><g id="uWiwDpdCT0Y"><g><path d="M 410,510 L 340,510 L 340,450" fill="none" stroke="#A8A8A8" stroke-width="2" stroke-linecap="round" stroke-linejoin="round"/><path d="M 334.25,455 L 345.75,455 Z" fill="none" stroke="#A8A8A8" stroke-width="2" stroke-linecap="round" stroke-linejoin="round"/></g></g><g id="LIqxuFkcrsA"><g transform="translate(69.99999999999994 400.00000000000006)"><rect x="0" y="0" width="100" height="50" fill="white" stroke="#3396DD" stroke-width="2" stroke-linecap="round" stroke-linejoin="round"/></g><g transform="translate(102.49999999999994, 415.50000000000006) rotate(0, 17.5, 9.5)" width="35" height="19"><text text-decoration="none" x="0" fill="rgb(97, 114, 130)" font-size="10pt" font-family="lt_regular"  y="15">Guest</text><text text-decoration="none" x="35" fill="#4b4b4b" font-size="10pt" font-family="noto_regular"  y="15"></text></g></g><g id="eD9QeITXrNR"><g><path d="M 170,425 L 219.99999999999994,425.00000000000006 Q 220.00000000000003,425.00000000000006 230,425 L 290,425" fill="none" stroke="#A8A8A8" stroke-width="2" stroke-linecap="round" stroke-linejoin="round"/><path d="M 290,425 L 281.30434782608694,419.25 L 281.30434782608694,430.75 Z" fill="rgb(168,168,168)" stroke="#A8A8A8" stroke-width="2" stroke-linecap="round" stroke-linejoin="round"/></g></g><g id="yYrIofUeuva"><g transform="translate(69.99999999999994 500)"><ellipse cx="50" cy="25" rx="50" ry="25" fill="white" stroke="#FAC065" stroke-width="2" stroke-linecap="round" stroke-linejoin="round"/></g><g transform="translate(97.99999999999994, 515.5) rotate(0, 22, 9.5)" width="44" height="19"><text text-decoration="none" x="1" fill="rgb(97, 114, 130)" font-size="10pt" font-family="lt_regular"  y="15">Chance</text><text text-decoration="none" x="43" fill="#4b4b4b" font-size="10pt" font-family="noto_regular"  y="15"></text></g></g><g id="WhGDaaseqpe"><g><path d="M 120,450 L 120,500" fill="none" stroke="#A8A8A8" stroke-width="2" stroke-linecap="round" stroke-linejoin="round"/></g></g><g id="9Gm6JIddGXf"><g transform="translate(1110 550)"><path d="M 109.99999999999997,35.00000000000001 L 54.999999999999986,70.00000000000001 L 0,35.00000000000001 L 54.999999999999986,0 L 109.99999999999997,35.00000000000001 L 109.99999999999997,35.00000000000001 Z" fill="white" stroke="#24afaf" stroke-width="2" stroke-linecap="round" stroke-linejoin="round"/></g><g transform="translate(1129.5, 575.5) rotate(0, 35.5, 9.5)" width="71" height="19"><text text-decoration="none" x="0.5" fill="rgb(75, 75, 75)" font-size="10pt" font-family="noto_regular"  y="15">Relationship</text><text text-decoration="none" x="70.5" fill="#4b4b4b" font-size="10pt" font-family="noto_regular"  y="15"></text></g></g><g id="thbPJXJwiOf"><g><path d="M 980,585 L 1110,585" fill="none" stroke="#A8A8A8" stroke-width="2" stroke-linecap="round" stroke-linejoin="round"/><path d="M 980,590.75 L 990,585 L 980,585 M 990,585 L 980,579.25" fill="none" stroke="#A8A8A8" stroke-width="2" stroke-linecap="round" stroke-linejoin="round"/><circle cx="995" cy="585" r="5.75" fill="rgb(255,255,255)" stroke="#A8A8A8" stroke-width="2" stroke-linecap="round" stroke-linejoin="round"/><path d="Z" fill="none" stroke="#A8A8A8" stroke-width="2" stroke-linecap="round" stroke-linejoin="round"/></g></g><g id="kfVFemAP28f"><g><path d="M 1220,585 L 1300,585 L 1300,450" fill="none" stroke="#A8A8A8" stroke-width="2" stroke-linecap="round" stroke-linejoin="round"/><path d="M 1294.25,455 L 1305.75,455 M 1294.25,460 L 1305.75,460 Z" fill="none" stroke="#A8A8A8" stroke-width="2" stroke-linecap="round" stroke-linejoin="round"/></g></g></svg>